<?xml version="1.0" encoding="UTF-8" standalone="no"?>
<svg
   xmlns:dc="http://purl.org/dc/elements/1.1/"
   xmlns:cc="http://creativecommons.org/ns#"
   xmlns:rdf="http://www.w3.org/1999/02/22-rdf-syntax-ns#"
   xmlns:svg="http://www.w3.org/2000/svg"
   xmlns="http://www.w3.org/2000/svg"
   xmlns:sodipodi="http://sodipodi.sourceforge.net/DTD/sodipodi-0.dtd"
   xmlns:inkscape="http://www.inkscape.org/namespaces/inkscape"
   sodipodi:docname="logo.svg"
   inkscape:version="1.0 (4035a4fb49, 2020-05-01)"
   id="svg8"
   version="1.1"
   viewBox="0 0 215.65753 69.493455"
   height="69.493454mm"
   width="215.65753mm">
  <defs
     id="defs2" />
  <sodipodi:namedview
     inkscape:window-maximized="1"
     inkscape:window-y="-9"
     inkscape:window-x="-9"
     inkscape:window-height="1001"
     inkscape:window-width="1920"
     fit-margin-bottom="5"
     fit-margin-right="5"
     fit-margin-left="5"
     fit-margin-top="5"
     lock-margins="true"
     showgrid="false"
     inkscape:document-rotation="0"
     inkscape:current-layer="text1192"
     inkscape:document-units="mm"
     inkscape:cy="90.507839"
     inkscape:cx="416.01681"
     inkscape:zoom="0.7"
     inkscape:pageshadow="2"
     inkscape:pageopacity="0.0"
     borderopacity="1.0"
     bordercolor="#666666"
     pagecolor="#ffffff"
     id="base" />
  <metadata
     id="metadata5">
    <rdf:RDF>
      <cc:Work
         rdf:about="">
        <dc:format>image/svg+xml</dc:format>
        <dc:type
           rdf:resource="http://purl.org/dc/dcmitype/StillImage" />
        <dc:title></dc:title>
      </cc:Work>
    </rdf:RDF>
  </metadata>
  <g
     transform="translate(11.664431,-97.746255)"
     id="layer1"
     inkscape:groupmode="layer"
     inkscape:label="Warstwa 1">
    <g
       style="font-style:normal;font-variant:normal;font-weight:normal;font-stretch:normal;font-size:35.2778px;line-height:1.25;font-family:'Century Gothic';-inkscape-font-specification:'Century Gothic, Normal';font-variant-ligatures:normal;font-variant-caps:normal;font-variant-numeric:normal;font-variant-east-asian:normal;fill:#000000;fill-opacity:1;stroke:none;stroke-width:0.264583"
       id="text931"
       aria-label="BYTE2BYTE">
      <g
         transform="matrix(1.8591704,0,0,1.8591704,-11.764135,101.81667)"
         id="g1163">
        <path
           style="fill:#3771c8;opacity:0.9"
           d="m 29.888,30.342 -4.453,-4.453 c 0.91,-1.27 1.452,-2.818 1.452,-4.496 0,-4.268 -3.471,-7.738 -7.736,-7.738 -4.268,0 -7.738,3.471 -7.738,7.738 0,4.266 3.471,7.738 7.738,7.738 1.677,0 3.226,-0.543 4.494,-1.453 l 4.453,4.453 c 0.492,0.492 1.295,0.492 1.79,0 0.494,-0.496 0.494,-1.297 0,-1.789 z M 12.383,21.393 c 0,-3.73 3.035,-6.766 6.768,-6.766 3.729,0 6.765,3.035 6.765,6.766 0,3.731 -3.035,6.766 -6.765,6.766 -3.733,-10e-4 -6.768,-3.036 -6.768,-6.766 z"
           fill="#231f20"
           id="path1129" />
        <path
           style="fill:#3771c8;opacity:0.7"
           d="M 8.58,0.5 C 8.215,0.5 7.704,0.65 7.35,1.365 7.122,1.826 7.011,2.443 7.011,3.248 c 0,0.791 0.107,1.402 0.333,1.867 0.365,0.764 0.939,0.877 1.249,0.877 0.308,0 0.879,-0.113 1.229,-0.887 C 10.038,4.64 10.146,4.007 10.146,3.224 10.146,2.472 10.035,1.851 9.812,1.378 9.469,0.652 8.953,0.5 8.58,0.5 Z m 0.361,4.203 c -0.146,0.32 -0.288,0.32 -0.349,0.32 -0.066,0 -0.218,0 -0.375,-0.326 C 8.061,4.369 7.98,3.881 7.98,3.248 7.98,2.605 8.06,2.115 8.219,1.795 8.38,1.469 8.52,1.469 8.579,1.469 c 0.062,0 0.203,0 0.354,0.322 0.161,0.344 0.242,0.824 0.242,1.434 0.002,0.632 -0.079,1.142 -0.234,1.478 z"
           fill="#231f20"
           id="path1131" />
        <path
           style="fill:#3771c8;opacity:0.7"
           d="m 12.855,5.992 c 0.31,0 0.88,-0.113 1.23,-0.887 C 14.3,4.64 14.408,4.009 14.408,3.224 14.408,2.46 14.3,1.857 14.076,1.376 13.73,0.652 13.217,0.5 12.846,0.5 c -0.367,0 -0.879,0.15 -1.23,0.865 -0.229,0.463 -0.342,1.078 -0.342,1.883 0,0.789 0.111,1.4 0.335,1.867 0.365,0.764 0.938,0.877 1.246,0.877 z M 12.484,1.795 c 0.16,-0.326 0.301,-0.326 0.361,-0.326 0.06,0 0.201,0 0.354,0.322 0.159,0.342 0.239,0.824 0.239,1.434 0,0.633 -0.08,1.145 -0.234,1.479 -0.146,0.32 -0.289,0.32 -0.35,0.32 -0.064,0 -0.216,0 -0.373,-0.326 C 12.322,4.368 12.242,3.88 12.242,3.249 12.243,2.605 12.323,2.117 12.484,1.795 Z"
           fill="#231f20"
           id="path1133" />
        <path
           style="opacity:0.7"
           d="m 25.656,5.992 c 0.311,0 0.882,-0.113 1.231,-0.885 0.214,-0.463 0.322,-1.098 0.322,-1.883 0,-0.766 -0.108,-1.371 -0.332,-1.846 C 26.533,0.652 26.019,0.5 25.646,0.5 c -0.366,0 -0.879,0.15 -1.229,0.865 -0.229,0.463 -0.342,1.078 -0.342,1.883 0,0.789 0.11,1.4 0.335,1.867 0.362,0.764 0.938,0.877 1.246,0.877 z m -0.37,-4.197 c 0.16,-0.326 0.301,-0.326 0.36,-0.326 0.059,0 0.201,0 0.354,0.324 0.159,0.338 0.239,0.82 0.239,1.432 0,0.635 -0.08,1.146 -0.234,1.479 -0.146,0.32 -0.289,0.32 -0.35,0.32 -0.064,0 -0.216,0 -0.372,-0.326 C 25.124,4.368 25.044,3.88 25.044,3.249 25.045,2.605 25.125,2.117 25.286,1.795 Z"
           fill="#231f20"
           id="path1135" />
        <path
           style="opacity:0.7"
           d="m 12.855,14.648 c 0.31,0 0.88,-0.117 1.23,-0.887 0.215,-0.467 0.323,-1.1 0.323,-1.881 0,-0.766 -0.108,-1.369 -0.332,-1.848 -0.347,-0.727 -0.86,-0.879 -1.231,-0.879 -0.367,0 -0.879,0.15 -1.23,0.865 -0.229,0.463 -0.342,1.078 -0.342,1.883 0,0.789 0.111,1.4 0.335,1.869 0.366,0.763 0.939,0.878 1.247,0.878 z m -0.371,-4.199 c 0.16,-0.326 0.301,-0.326 0.361,-0.326 0.06,0 0.201,0 0.354,0.324 0.159,0.34 0.239,0.822 0.239,1.434 0,0.633 -0.08,1.143 -0.234,1.477 -0.146,0.32 -0.289,0.32 -0.35,0.32 -0.064,0 -0.216,0 -0.373,-0.326 -0.159,-0.33 -0.239,-0.818 -0.239,-1.449 10e-4,-0.643 0.081,-1.132 0.242,-1.454 z"
           fill="#231f20"
           id="path1137" />
        <path
           style="opacity:0.7"
           d="m 4.313,9.154 c -0.367,0 -0.878,0.15 -1.229,0.865 -0.23,0.463 -0.341,1.078 -0.341,1.883 0,0.789 0.108,1.4 0.333,1.869 0.366,0.762 0.938,0.877 1.248,0.877 0.309,0 0.88,-0.117 1.231,-0.887 0.213,-0.467 0.322,-1.1 0.322,-1.881 0,-0.766 -0.109,-1.369 -0.332,-1.846 C 5.2,9.307 4.685,9.154 4.313,9.154 Z m 0.36,4.203 c -0.146,0.32 -0.289,0.32 -0.35,0.32 -0.065,0 -0.217,0 -0.374,-0.326 -0.158,-0.33 -0.238,-0.818 -0.238,-1.449 0,-0.643 0.08,-1.131 0.239,-1.453 0.163,-0.326 0.302,-0.326 0.362,-0.326 0.062,0 0.201,0 0.354,0.324 0.159,0.34 0.241,0.822 0.241,1.434 0.001,0.633 -0.081,1.142 -0.234,1.476 z"
           fill="#231f20"
           id="path1139" />
        <path
           style="opacity:0.7"
           d="m 8.579,17.811 c -0.367,0 -0.879,0.15 -1.23,0.865 -0.229,0.461 -0.34,1.076 -0.34,1.881 0,0.791 0.107,1.402 0.334,1.869 0.364,0.764 0.938,0.879 1.248,0.879 0.308,0 0.879,-0.115 1.229,-0.889 0.216,-0.465 0.324,-1.098 0.324,-1.881 0,-0.764 -0.108,-1.367 -0.333,-1.846 -0.343,-0.726 -0.86,-0.878 -1.232,-0.878 z m 0.36,4.203 c -0.147,0.32 -0.288,0.32 -0.349,0.32 -0.066,0 -0.218,0 -0.374,-0.326 -0.159,-0.33 -0.238,-0.818 -0.238,-1.451 0,-0.643 0.079,-1.129 0.239,-1.451 0.161,-0.324 0.3,-0.324 0.361,-0.324 0.061,0 0.202,0 0.355,0.322 0.159,0.34 0.24,0.822 0.24,1.432 0.002,0.632 -0.079,1.142 -0.234,1.478 z"
           fill="#231f20"
           id="path1141" />
        <rect
           style="opacity:0.7"
           fill="#231f20"
           height="5.3540001"
           width="0.97000003"
           x="3.823"
           y="0.56800002"
           id="rect1143" />
        <rect
           style="fill:#3771c8;opacity:0.7"
           fill="#231f20"
           height="5.3540001"
           width="0.96899998"
           x="16.625999"
           y="0.56800002"
           id="rect1145" />
        <rect
           style="opacity:0.7"
           fill="#231f20"
           height="5.3540001"
           width="0.96899998"
           x="20.893"
           y="0.56800002"
           id="rect1147" />
        <rect
           style="opacity:0.7"
           fill="#231f20"
           height="5.3569999"
           width="0.96899998"
           x="8.0909996"
           y="9.2250004"
           id="rect1149" />
        <rect
           style="fill:#3771c8;opacity:0.7"
           fill="#231f20"
           height="5.3569999"
           width="0.97000003"
           x="25.158001"
           y="9.2250004"
           id="rect1151" />
        <path
           style="opacity:0.9"
           d="m 21.133,17.396 c -0.488,0 -1.173,0.203 -1.662,1.166 -0.336,0.658 -0.506,1.578 -0.506,2.73 0,1.131 0.167,2.043 0.497,2.715 0.479,0.973 1.183,1.176 1.687,1.176 0.504,0 1.201,-0.205 1.661,-1.186 0.317,-0.678 0.473,-1.574 0.473,-2.738 0,-1.109 -0.163,-2.01 -0.486,-2.678 -0.475,-0.979 -1.167,-1.185 -1.664,-1.185 z m 0.798,6.192 c -0.264,0.563 -0.573,0.627 -0.782,0.627 -0.217,0 -0.536,-0.066 -0.817,-0.637 -0.264,-0.535 -0.397,-1.305 -0.397,-2.285 0,-0.998 0.135,-1.768 0.402,-2.291 0.288,-0.57 0.594,-0.637 0.797,-0.637 0.208,0 0.514,0.066 0.791,0.639 0.259,0.535 0.389,1.293 0.389,2.256 -0.001,1.004 -0.128,1.787 -0.383,2.328 z"
           fill="#231f20"
           id="path1153" />
        <rect
           style="fill:#3771c8;opacity:0.7"
           fill="#231f20"
           height="5.355"
           width="0.97000003"
           x="3.823"
           y="17.879"
           id="rect1155" />
        <rect
           style="opacity:0.9"
           fill="#231f20"
           height="7.6880002"
           width="0.97000003"
           x="15.837"
           y="17.447001"
           id="rect1157" />
        <path
           style="opacity:0.7"
           d="m 17.595,9.225 h -0.969 v 4.127 c 0.315,-0.1 0.64,-0.174 0.969,-0.236 z"
           fill="#231f20"
           id="path1159" />
        <path
           style="fill:#3771c8;opacity:0.7"
           d="m 20.947,13.162 c -0.11,-0.316 -0.168,-0.736 -0.168,-1.26 0,-0.645 0.079,-1.131 0.24,-1.453 0.161,-0.326 0.301,-0.326 0.36,-0.326 0.061,0 0.202,0 0.354,0.324 0.161,0.342 0.242,0.824 0.242,1.434 0,0.631 -0.081,1.141 -0.234,1.477 -0.003,0.006 -0.006,0.01 -0.01,0.016 0.311,0.1 0.61,0.221 0.902,0.354 0.205,-0.463 0.312,-1.082 0.312,-1.846 0,-0.754 -0.111,-1.373 -0.334,-1.846 -0.345,-0.729 -0.859,-0.881 -1.231,-0.881 -0.366,0 -0.878,0.15 -1.229,0.863 -0.231,0.463 -0.342,1.078 -0.342,1.885 0,0.424 0.044,0.779 0.11,1.104 0.35,0.03 0.692,0.083 1.028,0.155 z"
           fill="#231f20"
           id="path1161" />
      </g>
      <g
         style="font-style:normal;font-variant:normal;font-weight:normal;font-stretch:normal;font-size:41.4308px;line-height:1.25;font-family:'Tw Cen MT Condensed';-inkscape-font-specification:'Tw Cen MT Condensed, ';fill:#000000;fill-opacity:1;stroke:none;stroke-width:0.274048;opacity:0.9"
         id="text1192"
         aria-label="byte2byte.pl">
        <path
           id="path1194"
           style="font-style:normal;font-variant:normal;font-weight:normal;font-stretch:normal;font-family:'Tw Cen MT Condensed';-inkscape-font-specification:'Tw Cen MT Condensed, ';stroke-width:0.274048;opacity:0.9"
           d="m 51.274495,116.78398 h 3.3177 v 11.34896 h 0.08092 q 0.930575,-2.65011 3.43908,-2.65011 1.861149,0 3.054713,1.73977 1.213793,1.73977 1.213793,6.71632 0,6.06896 -1.072184,7.90988 -1.072184,1.82069 -3.317701,1.82069 -2.144368,0 -3.358161,-2.65011 h -0.08092 v 2.44781 h -3.277241 z m 7.586206,18.46988 q 0,-3.76276 -0.445058,-5.36092 -0.424827,-1.59816 -1.759999,-1.59816 -1.132874,0 -1.618391,1.29471 -0.485517,1.29472 -0.485517,4.14713 0,3.86391 0.445057,5.50253 0.465287,1.61839 1.73977,1.61839 1.153103,0 1.638621,-1.31494 0.485517,-1.33518 0.485517,-4.28874 z" />
        <path
           id="path1196"
           style="font-style:normal;font-variant:normal;font-weight:normal;font-stretch:normal;font-family:'Tw Cen MT Condensed';-inkscape-font-specification:'Tw Cen MT Condensed, ';stroke-width:0.274048;opacity:0.9"
           d="m 77.542998,125.78628 -8.253793,25.50988 h -2.892873 l 2.892873,-9.4069 -4.794482,-16.10298 h 3.297471 l 2.913103,12.17839 h 0.08092 l 3.600919,-12.17839 z" />
        <path
           id="path1198"
           style="font-style:normal;font-variant:normal;font-weight:normal;font-stretch:normal;font-family:'Tw Cen MT Condensed';-inkscape-font-specification:'Tw Cen MT Condensed, ';stroke-width:0.274048;opacity:0.9"
           d="m 87.142077,128.39593 h -2.144368 v 15.07126 h -3.3177 v -15.07126 h -2.124138 v -2.60965 h 2.124138 v -4.81472 h 3.3177 v 4.81472 h 2.144368 z" />
        <path
           id="path1200"
           style="font-style:normal;font-variant:normal;font-weight:normal;font-stretch:normal;font-family:'Tw Cen MT Condensed';-inkscape-font-specification:'Tw Cen MT Condensed, ';stroke-width:0.274048;opacity:0.9"
           d="m 101.12093,135.2134 h -7.444601 q 0,2.87264 0.384367,4.34943 0.404598,1.45655 1.88138,1.45655 1.132873,0 1.537471,-0.84966 0.404597,-0.84965 0.424827,-2.67034 h 3.014256 q -0.14161,6.21057 -5.259773,6.21057 -5.502528,0 -5.502528,-8.69885 0,-9.48781 5.704827,-9.48781 2.164598,0 3.702069,1.63862 1.557705,1.63862 1.557705,6.77701 z m -3.337935,-2.56919 q 0,-2.62989 -0.424828,-3.76276 -0.424827,-1.15311 -1.537471,-1.15311 -1.314942,0 -1.73977,1.2138 -0.404597,1.19356 -0.404597,3.70207 z" />
        <path
           id="path1202"
           style="font-style:normal;font-variant:normal;font-weight:normal;font-stretch:normal;font-family:'Tw Cen MT Condensed';-inkscape-font-specification:'Tw Cen MT Condensed, ';fill:#3771c8;stroke-width:0.274048;opacity:0.9"
           d="m 104.98483,125.98857 q -0.0607,-5.44183 1.45656,-7.04 1.53747,-1.61839 4.55172,-1.61839 5.4823,0 5.4823,5.74529 0,2.04322 -0.72828,4.47081 -0.72827,2.40735 -2.54896,6.14988 l -3.23678,6.61517 h 5.76551 v 3.15586 h -11.26804 l 4.51126,-8.90115 q 0.14161,-0.16183 0.36414,-0.70804 0.24276,-0.54621 0.34391,-0.74851 1.73977,-3.47954 2.46804,-5.6239 0.72828,-2.1646 0.72828,-4.06621 0,-1.43632 -0.56644,-2.22529 -0.56643,-0.80919 -1.5577,-0.80919 -1.5577,0 -1.94207,1.45655 -0.38436,1.43632 -0.42482,4.14712 z" />
        <path
           id="path1204"
           style="font-style:normal;font-variant:normal;font-weight:normal;font-stretch:normal;font-family:'Tw Cen MT Condensed';-inkscape-font-specification:'Tw Cen MT Condensed, ';stroke-width:0.274048;opacity:0.9"
           d="m 120.62253,116.78398 h 3.3177 v 11.34896 h 0.0809 q 0.93058,-2.65011 3.43908,-2.65011 1.86115,0 3.05472,1.73977 1.21379,1.73977 1.21379,6.71632 0,6.06896 -1.07219,7.90988 -1.07218,1.82069 -3.3177,1.82069 -2.14436,0 -3.35816,-2.65011 h -0.0809 v 2.44781 h -3.27724 z m 7.58621,18.46988 q 0,-3.76276 -0.44506,-5.36092 -0.42483,-1.59816 -1.76,-1.59816 -1.13287,0 -1.61839,1.29471 -0.48552,1.29472 -0.48552,4.14713 0,3.86391 0.44506,5.50253 0.46529,1.61839 1.73977,1.61839 1.1531,0 1.63862,-1.31494 0.48552,-1.33518 0.48552,-4.28874 z" />
        <path
           id="path1206"
           style="font-style:normal;font-variant:normal;font-weight:normal;font-stretch:normal;font-family:'Tw Cen MT Condensed';-inkscape-font-specification:'Tw Cen MT Condensed, ';stroke-width:0.274048;opacity:0.9"
           d="m 146.89104,125.78628 -8.25379,25.50988 h -2.89288 l 2.89288,-9.4069 -4.79449,-16.10298 h 3.29747 l 2.91311,12.17839 h 0.0809 l 3.60092,-12.17839 z" />
        <path
           id="path1208"
           style="font-style:normal;font-variant:normal;font-weight:normal;font-stretch:normal;font-family:'Tw Cen MT Condensed';-inkscape-font-specification:'Tw Cen MT Condensed, ';stroke-width:0.274048;opacity:0.9"
           d="m 156.49012,128.39593 h -2.14437 v 15.07126 h -3.3177 v -15.07126 h -2.12414 v -2.60965 h 2.12414 v -4.81472 h 3.3177 v 4.81472 h 2.14437 z" />
        <path
           id="path1210"
           style="font-style:normal;font-variant:normal;font-weight:normal;font-stretch:normal;font-family:'Tw Cen MT Condensed';-inkscape-font-specification:'Tw Cen MT Condensed, ';stroke-width:0.274048;opacity:0.9"
           d="m 170.46897,135.2134 h -7.4446 q 0,2.87264 0.38437,4.34943 0.4046,1.45655 1.88138,1.45655 1.13287,0 1.53747,-0.84966 0.4046,-0.84965 0.42483,-2.67034 h 3.01425 q -0.14161,6.21057 -5.25977,6.21057 -5.50253,0 -5.50253,-8.69885 0,-9.48781 5.70483,-9.48781 2.1646,0 3.70207,1.63862 1.5577,1.63862 1.5577,6.77701 z m -3.33793,-2.56919 q 0,-2.62989 -0.42483,-3.76276 -0.42483,-1.15311 -1.53747,-1.15311 -1.31494,0 -1.73977,1.2138 -0.4046,1.19356 -0.4046,3.70207 z" />
        <path
           id="path1212"
           style="font-style:normal;font-variant:normal;font-weight:normal;font-stretch:normal;font-family:'Tw Cen MT Condensed';-inkscape-font-specification:'Tw Cen MT Condensed, ';stroke-width:0.274048;opacity:0.9"
           d="m 174.37334,139.52237 q 0.93057,0 1.51724,0.56643 0.58667,0.56644 0.58667,1.43632 0,0.86989 -0.6069,1.49702 -0.58667,0.60689 -1.41609,0.60689 -0.84966,0 -1.45655,-0.62712 -0.6069,-0.62713 -0.6069,-1.47679 0,-0.84965 0.56644,-1.41609 0.58666,-0.58666 1.41609,-0.58666 z" />
        <path
           id="path1214"
           style="font-style:normal;font-variant:normal;font-weight:normal;font-stretch:normal;font-family:'Tw Cen MT Condensed';-inkscape-font-specification:'Tw Cen MT Condensed, ';stroke-width:0.274048;opacity:0.9"
           d="m 183.94208,127.72834 q 0.80919,-1.1531 1.5577,-1.67908 0.76873,-0.52597 1.80046,-0.52597 2.36689,0 3.35816,2.1039 0.99126,2.10391 0.99126,6.85794 0,5.36091 -1.05195,7.32321 -1.03173,1.94207 -3.25701,1.94207 -0.97104,0 -1.63862,-0.42483 -0.66759,-0.44505 -1.67909,-1.80046 h -0.0809 v 9.77104 h -3.31771 v -25.50988 h 3.23679 v 1.94206 z m 1.98252,13.16966 q 1.19357,0 1.69931,-1.37563 0.50575,-1.39587 0.50575,-4.51127 0,-3.62115 -0.46529,-5.13839 -0.46528,-1.53747 -1.73977,-1.53747 -1.17333,0 -1.59816,1.27448 -0.42482,1.25426 -0.42482,4.28874 0,3.76276 0.32367,5.38115 0.34391,1.61839 1.69931,1.61839 z" />
        <path
           id="path1216"
           style="font-style:normal;font-variant:normal;font-weight:normal;font-stretch:normal;font-family:'Tw Cen MT Condensed';-inkscape-font-specification:'Tw Cen MT Condensed, ';stroke-width:0.274048;opacity:0.9"
           d="m 198.9931,143.46719 h -3.3177 v -26.68321 h 3.3177 z" />
      </g>
    </g>
  </g>
</svg>
